<!-- Generated by IcoMoon.io -->
<svg version="1.1" xmlns="http://www.w3.org/2000/svg" width="32" height="32" viewBox="0 0 32 32">
    <title>icon-linkedin</title>
    <path
        d="M28.8 0h-25.6c-1.76 0-3.2 1.44-3.2 3.2v25.6c0 1.76 1.44 3.2 3.2 3.2h25.6c1.76 0 3.2-1.44 3.2-3.2v-25.6c0-1.76-1.44-3.2-3.2-3.2zM9.6 27.2h-4.8v-14.4h4.8v14.4zM7.2 10.080c-1.6 0-2.88-1.28-2.88-2.88s1.28-2.88 2.88-2.88 2.88 1.28 2.88 2.88-1.28 2.88-2.88 2.88zM27.2 27.2h-4.8v-8.48c0-1.28-1.12-2.4-2.4-2.4s-2.4 1.12-2.4 2.4v8.48h-4.8v-14.4h4.8v1.92c0.8-1.28 2.56-2.24 4-2.24 3.040 0 5.6 2.56 5.6 5.6v9.12z">
    </path>
</svg>