<!-- Generated by IcoMoon.io -->
<svg version="1.1" xmlns="http://www.w3.org/2000/svg" width="32" height="32" viewBox="0 0 32 32">
<title>icon-pinterest</title>
<path fill="#fff" d="M16 0c-8.836 0-16 7.163-16 16 0 6.779 4.217 12.568 10.169 14.899-0.14-1.265-0.267-3.207 0.056-4.588 0.291-1.249 1.876-7.953 1.876-7.953s-0.479-0.959-0.479-2.376c0-2.224 1.289-3.885 2.895-3.885 1.364 0 2.024 1.025 2.024 2.253 0 1.372-0.873 3.424-1.325 5.327-0.377 1.592 0.799 2.892 2.369 2.892 2.844 0 5.029-2.999 5.029-7.327 0-3.831-2.752-6.509-6.683-6.509-4.552 0-7.224 3.415-7.224 6.943 0 1.375 0.529 2.851 1.191 3.651 0.080 0.086 0.129 0.201 0.129 0.328 0 0.047-0.007 0.093-0.019 0.136l0.001-0.003-0.444 1.813c-0.071 0.293-0.232 0.356-0.536 0.215-1.999-0.931-3.248-3.852-3.248-6.199 0-5.047 3.667-9.683 10.572-9.683 5.551 0 9.864 3.956 9.864 9.241 0 5.515-3.476 9.952-8.303 9.952-1.621 0-3.145-0.841-3.667-1.837l-0.997 3.804c-0.361 1.391-1.336 3.133-1.989 4.195 1.499 0.463 3.089 0.713 4.739 0.713 8.836 0 16-7.164 16-16 0-8.837-7.164-16-16-16z"></path>
</svg>
